<?xml version="1.0" standalone="yes"?>
<svg xmlns="http://www.w3.org/2000/svg" width="128" height="128">
<path style="fill:#030304; stroke:none;" d="M0 0L0 128L128 128L128 0L0 0z"/>
<path style="fill:#476ac8; stroke:none;" d="M56 23.4252C46.9221 24.6609 37.3483 25.7111 30.0895 31.8194C11.1101 47.7909 9.86542 81.8318 31.0394 96.8665C40.9524 103.905 58.6587 102.24 70 100.711C82.8598 98.9783 99.353 93.6504 107.581 82.9853C120.435 66.3242 110.509 38.8598 93.9992 28.9799C83.874 22.9206 67.451 21.8664 56 23.4252z"/>
<path style="fill:#ac47c6; stroke:none;" d="M21 35C1.02757 51.2645 -3.08399 78.5006 22 93C14.3287 80.2567 8.95927 67.037 13.4398 52C15.1828 46.1503 20.0173 40.8231 21 35M106 35L107 36L106 35M107 36L108 37L107 36M108 37C111.91 47.7437 116 57.3798 116 69L117 69C118.965 58.4177 118.879 42.8673 108 37z"/>
<path style="fill:#030304; stroke:none;" d="M32 77L34 77L35 43C43.219 43 56.3126 41.6372 57.7284 53C58.2401 57.1068 54.9969 60.1055 54.9969 64C54.9969 71.8827 61.451 77.218 51.9846 83.2577C45.1743 87.6028 37.6699 83.7976 31 82C31.3661 93.1502 50.7138 90.515 56.892 84.7755C64.1983 77.9879 60.1866 72.1039 60.0787 64C60.0177 59.4193 62.5858 55.7875 61.4668 51C59.052 40.6682 50.1087 38.9965 41 39C38.3833 39.001 33.8912 38.2506 32.0278 40.6034C30.2282 42.8755 31.0002 47.3066 31 50C30.9994 58.6066 29.5526 68.7201 32 77M77.0008 39.6489C65.4044 43.1594 62.3454 58.9775 72.0941 66.348C74.8148 68.4049 84.515 69.3604 84.5154 73.5988C84.516 80.3691 70.8524 68.3085 67.0679 73.6034C60.588 82.6695 79.5256 90.2163 86 88.196C97.6111 84.5728 100.621 69.0308 90.956 61.5687C88.3229 59.5356 78.1238 58.3289 78.7701 54.0193C79.6833 47.9294 90.91 58.6552 95.3819 54.9722C98.0029 52.8136 95.7698 48.176 94.2971 46.0154C90.4796 40.4152 83.5717 37.6597 77.0008 39.6489z"/>
<path style="fill:#476ac8; stroke:none;" d="M111 39L112 40L111 39M112 40L113 41L112 40z"/>
<path style="fill:#209fba; stroke:none;" d="M113 41L114 42L113 41M114 42C119.626 61.6806 116.697 73.7621 107 92C124.72 82.8075 131.01 55.136 114 42z"/>
<path style="fill:#ac47c6; stroke:none;" d="M35 43C35 52.2717 35.5776 61.7507 34.946 71C34.7078 74.4877 32.3868 78.4374 33.8765 81.8519C36.5278 87.9285 51.0696 85.4736 54.7716 81.7716C60.7922 75.751 55.6281 70.6192 55.6281 64C55.6281 60.1835 58.2042 57.0043 57.8758 53C56.9029 41.1378 43.4427 43 35 43M70 76C73.574 86.4829 90.5645 89.0416 92.7677 76C95.2049 61.5739 79.6047 65.7747 75.1944 56.956C72.6845 51.9372 77.61 46.0911 83 47.6427C86.6845 48.7034 89.0562 51.3945 93 52C89.426 41.5171 72.4355 38.9584 70.2323 52C67.7865 66.4766 83.477 62.168 87.8017 71.044C90.0906 75.7417 85.0159 81.6618 80 80.3426C76.3206 79.3749 73.9271 76.6029 70 76z"/>
<path style="fill:#476ac8; stroke:none;" d="M118 46L119 47L118 46z"/>
<path style="fill:#030304; stroke:none;" d="M39 47C39 50.5646 37.6936 57.4497 40.0278 60.3966C47.0255 69.2311 62.3852 49.939 47.9846 47.2284C45.096 46.6847 41.928 47 39 47z"/>
<path style="fill:#476ac8; stroke:none;" d="M116 48L117 49L116 48z"/>
<path style="fill:#ea9c19; stroke:none;" d="M43 50L43 54L50 54L43 50z"/>
<path style="fill:#ac47c6; stroke:none;" d="M47 50L48 51L47 50M80.6667 50.3333L81.3333 50.6667L80.6667 50.3333z"/>
<path style="fill:#476ac8; stroke:none;" d="M82 50L83 51L82 50z"/>
<path style="fill:#ac47c6; stroke:none;" d="M42.3333 51.6667L42.6667 52.3333L42.3333 51.6667z"/>
<path style="fill:#ea9c19; stroke:none;" d="M78 54L95 59L95 56C89.3081 55.9328 81.6004 48.4659 78 54z"/>
<path style="fill:#476ac8; stroke:none;" d="M117 51L118 52L117 51M42 53L43 54L42 53M50 53L43 54L43 58C46.6045 57.882 50.6163 57.4139 50 53M77 53C78.8857 58.1323 82.952 58.5977 88 59L77 53z"/>
<path style="fill:#ac47c6; stroke:none;" d="M85 53L86 54L85 53z"/>
<path style="fill:#476ac8; stroke:none;" d="M122 54L123 55L122 54z"/>
<path style="fill:#ac47c6; stroke:none;" d="M87 55L88 56L87 55z"/>
<path style="fill:#476ac8; stroke:none;" d="M118 56L118 62L119 62L118 56M123 57L124 58L123 57z"/>
<path style="fill:#ea9c19; stroke:none;" d="M69 64C71.9854 71.3691 78.0085 72.2768 85 74L69 64z"/>
<path style="fill:#030304; stroke:none;" d="M39 81C41.916 81 45.0849 81.3238 47.9599 80.7716C62.2815 78.021 47.0483 58.7402 40.0278 67.6034C37.6936 70.5503 39 77.4354 39 81z"/>
<path style="fill:#476ac8; stroke:none;" d="M117 66L118 67L117 66z"/>
<path style="fill:#ac47c6; stroke:none;" d="M73 67L74 68L73 67M75 68L76 69L75 68M78.6667 69.3333L79.3333 69.6667L78.6667 69.3333z"/>
<path style="fill:#476ac8; stroke:none;" d="M116 69L117 70L116 69z"/>
<path style="fill:#ac47c6; stroke:none;" d="M42.3333 70.6667L42.6667 71.3333L42.3333 70.6667z"/>
<path style="fill:#ea9c19; stroke:none;" d="M43 70L43 73L50 74C48.7774 70.3133 46.6916 70.1204 43 70z"/>
<path style="fill:#476ac8; stroke:none;" d="M123 70L124 71L123 70M42 72L43 73L42 72M75 72L75 73C78.6089 75.8756 82.0626 79.176 85 74L75 72M115 72L116 73L115 72M43 73L43 78L50 74L43 73z"/>
<path style="fill:#ac47c6; stroke:none;" d="M50 73L51 74L50 73z"/>
<path style="fill:#476ac8; stroke:none;" d="M85 73L86 74L85 73M122 73L123 74L122 73M114 76L115 77L114 76M113 79L114 80L113 79z"/>
<path style="fill:#ac47c6; stroke:none;" d="M58 83L56 86L58 83M69 83L72 86L69 83z"/>
<path style="fill:#ea9c19; stroke:none;" d="M93 83C86.191 91.1576 78.4587 88.8204 70 85C74.0961 93.3269 94.6224 95.1314 93 83z"/>
<path style="fill:#ac47c6; stroke:none;" d="M107 83L108 84L107 83z"/>
<path style="fill:#ea9c19; stroke:none;" d="M58 84L59 85L58 84M69 84L70 85L69 84z"/>
<path style="fill:#ac47c6; stroke:none;" d="M92 84L93 85L92 84z"/>
<path style="fill:#ea9c19; stroke:none;" d="M106 84C85.7494 102.483 62.2307 101.083 37 100L37 101C55.2883 103.463 70.6884 106.585 89 101.086C95.5573 99.1174 105.985 91.4883 106 84z"/>
<path style="fill:#476ac8; stroke:none;" d="M111 84L112 85L111 84z"/>
<path style="fill:#ea9c19; stroke:none;" d="M57 85C49.3895 89.7814 41.6757 89 33 89L33 92C39.0228 92 57.2078 94.4976 57 85z"/>
<path style="fill:#ac47c6; stroke:none;" d="M91 85L92 86L91 85M106 85L107 86L106 85M53 87L54 88L53 87M74 87L75 88L74 87M88 87L89 88L88 87M50 88L51 89L50 88z"/>
<path style="fill:#476ac8; stroke:none;" d="M77 88L78 89L77 88z"/>
<path style="fill:#ac47c6; stroke:none;" d="M85 88L86 89L85 88z"/>
<path style="fill:#476ac8; stroke:none;" d="M108 89L109 90L108 89M108 91L109 92L108 91z"/>
<path style="fill:#ac47c6; stroke:none;" d="M101 92L102 93L101 92z"/>
<path style="fill:#476ac8; stroke:none;" d="M106 92L107 93L106 92z"/>
<path style="fill:#ac47c6; stroke:none;" d="M100 93L101 94L100 93M99 94L100 95L99 94M98 95L99 96L98 95z"/>
<path style="fill:#476ac8; stroke:none;" d="M97 96L98 97L97 96z"/>
<path style="fill:#ea9c19; stroke:none;" d="M35.6667 99.3333L36.3333 99.6667L35.6667 99.3333z"/>
<path style="fill:#ac47c6; stroke:none;" d="M40 101L41 102L40 101M87 101L88 102L87 101z"/>
<path style="fill:#476ac8; stroke:none;" d="M43 102L44 103L43 102z"/>
<path style="fill:#ac47c6; stroke:none;" d="M44 102L45 103L44 102M83 102L84 103L83 102z"/>
<path style="fill:#476ac8; stroke:none;" d="M84 102L85 103L84 102z"/>
<path style="fill:#ac47c6; stroke:none;" d="M48.6667 103.333L49.3333 103.667L48.6667 103.333M78.6667 103.333L79.3333 103.667L78.6667 103.333M55 104L55 105L58 105L55 104M70 104L70 105L73 105L70 104z"/>
</svg>
